{"glyphs":{":":{"x_min":0,"x_max":402,"ha":402,"o":"m 312 356 l 129 356 l 173 548 l 356 548 z m 230 0 l 47 0 l 91 192 l 274 192 z"},"$":{"x_min":0,"x_max":711,"ha":711,"o":"m 337 1 l 296 -176 l 211 -176 l 252 -2 q 195 -1 127 11 q 60 24 23 43 l 57 186 l 79 186 q 113 164 167 148 q 222 132 284 127 l 316 266 q 203 292 153 328 q 104 363 104 424 q 104 526 179 583 q 254 641 404 656 l 430 770 l 515 770 l 489 657 q 533 655 591 644 q 649 633 681 619 l 648 479 l 626 479 q 596 499 554 512 q 512 525 459 528 l 430 399 q 542 375 594 338 q 645 301 645 236 q 645 132 564 72 q 483 12 337 1 z m 382 528 q 336 525 310 507 q 284 490 284 462 q 284 443 303 431 q 322 418 355 413 z m 459 198 q 459 220 445 233 q 430 246 394 253 l 365 129 q 409 134 434 150 q 459 167 459 198 z"},"?":{"x_min":0,"x_max":617,"ha":617,"o":"m 630 567 q 630 482 566 415 q 502 347 366 297 l 342 195 l 170 195 l 209 364 q 318 392 374 435 q 430 477 430 531 q 430 570 404 589 q 377 607 328 607 q 289 607 245 592 q 201 577 155 551 l 135 551 l 170 700 q 209 716 267 729 q 324 742 390 742 q 505 742 568 696 q 630 650 630 567 z m 340 129 l 311 0 l 113 0 l 143 129 z"},"<":{"x_min":0,"x_max":867,"ha":867,"o":"m 763 -3 l 110 268 l 110 379 l 763 650 l 763 510 l 306 323 l 763 137 z"},"'":{"x_min":0,"x_max":332,"ha":332,"o":"m 354 760 l 258 472 l 148 472 l 185 760 z"},"=":{"x_min":0,"x_max":867,"ha":867,"o":"m 756 386 l 132 386 l 132 517 l 756 517 z m 756 129 l 132 129 l 132 260 l 756 260 z"},"a":{"x_min":0,"x_max":668,"ha":668,"o":"m 412 259 q 365 255 324 250 q 283 244 254 234 q 224 223 208 204 q 193 184 193 152 q 193 124 214 112 q 234 101 274 101 q 300 101 329 113 q 359 125 385 143 z m 365 58 q 349 47 325 32 q 302 17 282 8 q 254 -3 230 -9 q 207 -15 164 -15 q 96 -15 52 24 q 9 62 9 124 q 9 188 40 234 q 71 279 131 306 q 188 331 266 342 q 345 354 436 359 q 437 362 438 368 q 439 375 439 383 q 439 418 407 432 q 375 446 311 446 q 268 446 215 431 q 163 417 136 407 l 120 407 l 146 537 q 177 544 241 554 q 306 564 370 564 q 499 564 559 530 q 619 497 619 426 q 619 416 617 400 q 616 385 613 373 l 527 0 l 352 0 z"},"L":{"x_min":0,"x_max":637,"ha":637,"o":"m 554 0 l 29 0 l 197 727 l 385 727 l 250 141 l 586 141 z"},"3":{"x_min":0,"x_max":711,"ha":711,"o":"m 534 55 q 486 20 425 2 q 363 -16 288 -16 q 199 -16 130 1 q 61 17 17 40 l 51 198 l 70 197 q 114 166 169 146 q 225 127 278 127 q 357 127 401 157 q 445 187 445 241 q 445 264 437 279 q 428 293 409 302 q 389 311 357 314 q 326 316 287 316 l 247 316 l 275 445 l 316 445 q 417 445 456 467 q 496 489 496 533 q 496 568 463 585 q 429 602 370 602 q 319 602 264 585 q 208 569 164 547 l 146 548 l 180 705 q 223 719 288 731 q 353 742 415 742 q 477 742 526 733 q 576 723 611 704 q 648 684 668 653 q 688 623 688 576 q 688 532 673 498 q 658 464 632 441 q 607 419 575 405 q 542 391 512 384 l 510 377 q 563 369 599 335 q 635 301 635 248 q 635 187 608 137 q 581 88 534 55 z"},";":{"x_min":0,"x_max":402,"ha":402,"o":"m 312 356 l 129 356 l 173 548 l 356 548 z m 304 192 l 42 -181 l -67 -181 l 114 192 z"},"J":{"x_min":0,"x_max":555,"ha":555,"o":"m 464 240 q 434 112 352 50 q 270 -11 127 -11 q 75 -11 33 -8 q -9 -4 -42 3 l -7 153 l 10 153 q 31 145 55 137 q 79 129 118 129 q 193 129 230 165 q 267 201 291 304 l 357 593 l 191 593 l 222 727 l 577 727 z"},"V":{"x_min":0,"x_max":764,"ha":764,"o":"m 856 727 l 423 0 l 213 0 l 116 727 l 308 727 l 366 208 l 656 727 z"},"\"":{"x_min":0,"x_max":587,"ha":587,"o":"m 609 760 l 514 472 l 403 472 l 440 760 z m 354 760 l 258 472 l 148 472 l 185 760 z"},"7":{"x_min":0,"x_max":711,"ha":711,"o":"m 718 587 l 257 0 l 44 0 l 522 593 l 149 593 l 181 727 l 750 727 z"},"S":{"x_min":0,"x_max":710,"ha":710,"o":"m 296 -13 q 203 -13 130 3 q 57 19 3 43 l 41 217 l 62 217 q 112 171 180 146 q 248 121 326 121 q 406 121 443 143 q 481 165 481 205 q 481 220 475 231 q 469 242 451 253 q 434 264 403 274 q 373 285 324 298 q 271 313 229 330 q 187 347 157 371 q 127 395 112 426 q 96 457 96 500 q 96 610 193 675 q 289 740 457 740 q 537 740 609 727 q 680 714 730 691 l 694 524 l 674 524 q 636 559 574 583 q 512 606 438 606 q 366 606 326 585 q 287 564 287 527 q 287 510 292 499 q 298 488 316 477 q 332 467 366 456 q 399 444 445 432 q 567 399 619 355 q 671 312 671 236 q 671 173 643 125 q 615 78 565 48 q 513 16 446 1 q 380 -13 296 -13 z"},"}":{"x_min":0,"x_max":711,"ha":711,"o":"m 651 344 l 626 224 l 592 224 q 502 224 458 188 q 413 152 396 69 l 380 -2 q 360 -99 297 -145 q 234 -191 133 -191 l -1 -191 l 22 -82 l 78 -82 q 112 -82 135 -77 q 158 -73 178 -59 q 197 -46 209 -23 q 221 -1 229 38 l 242 96 q 258 172 302 215 q 347 258 429 283 l 432 295 q 383 315 354 349 q 324 382 324 436 q 324 460 335 509 q 345 558 345 575 q 345 616 323 633 q 301 650 239 650 l 178 650 l 201 760 l 331 760 q 411 760 458 725 q 504 690 504 624 q 504 591 490 534 q 477 477 477 443 q 477 393 509 369 q 541 344 617 344 z"},"Z":{"x_min":0,"x_max":692,"ha":692,"o":"m 590 0 l -21 0 l 11 134 l 491 589 l 133 589 l 165 727 l 739 727 l 707 591 l 228 138 l 623 138 z"},"x":{"x_min":0,"x_max":669,"ha":669,"o":"m 234 279 l 80 548 l 269 548 l 356 381 l 514 548 l 717 548 l 437 273 l 593 0 l 403 0 l 315 169 l 152 0 l -51 0 z"},")":{"x_min":0,"x_max":543,"ha":543,"o":"m 470 427 q 470 256 386 91 q 303 -74 155 -201 l -26 -201 l -26 -187 q 45 -132 106 -65 q 167 1 211 76 q 256 152 281 236 q 306 321 306 409 q 306 509 280 589 q 253 668 189 746 l 189 760 l 362 760 q 417 679 444 603 q 470 527 470 427 z"},"&":{"x_min":0,"x_max":862,"ha":862,"o":"m 821 0 l 589 0 l 534 62 q 468 18 407 1 q 345 -15 295 -15 q 177 -15 108 36 q 39 86 39 173 q 39 215 53 250 q 66 286 91 315 q 115 343 149 366 q 183 388 222 407 q 185 440 169 473 q 153 505 153 542 q 153 583 171 619 q 190 655 226 683 q 261 709 316 726 q 371 742 437 742 q 546 742 608 705 q 670 668 670 604 q 670 574 658 543 q 646 513 621 487 q 596 461 557 438 q 518 416 461 398 l 583 267 l 616 424 l 798 424 l 787 370 q 773 310 744 260 q 714 210 671 172 l 823 10 z m 483 579 q 483 607 468 623 q 453 639 421 639 q 386 639 362 619 q 338 599 338 563 q 338 540 356 513 q 373 487 403 459 q 439 483 461 515 q 483 547 483 579 z m 465 144 l 296 329 q 268 306 253 279 q 238 252 238 222 q 238 172 269 141 q 299 110 357 110 q 387 110 412 117 q 437 125 465 144 z"},"_":{"x_min":0,"x_max":711,"ha":711,"o":"m 640 -68 l 616 -171 l -110 -171 l -87 -68 z"},"v":{"x_min":0,"x_max":649,"ha":649,"o":"m 693 548 l 354 0 l 154 0 l 71 548 l 252 548 l 292 171 l 504 548 z"},"O":{"x_min":0,"x_max":850,"ha":850,"o":"m 833 457 q 833 367 803 281 q 773 194 715 130 q 652 60 568 22 q 484 -15 375 -15 q 226 -15 142 62 q 58 139 58 273 q 58 368 90 454 q 122 539 182 604 q 241 667 327 705 q 414 742 516 742 q 665 742 749 665 q 833 588 833 457 z m 565 208 q 599 252 617 309 q 636 367 636 441 q 636 520 599 564 q 562 608 492 608 q 447 608 406 587 q 364 566 330 524 q 296 483 275 423 q 255 363 255 288 q 255 204 293 162 q 332 119 399 119 q 446 119 490 142 q 533 166 565 208 z"},"(":{"x_min":0,"x_max":543,"ha":543,"o":"m 570 746 q 499 690 438 624 q 378 557 333 482 q 289 407 263 322 q 238 238 238 149 q 238 49 265 -30 q 291 -109 355 -187 l 355 -201 l 183 -201 q 127 -121 101 -44 q 74 32 74 131 q 74 302 158 467 q 242 632 390 760 l 570 760 z"},"C":{"x_min":0,"x_max":724,"ha":724,"o":"m 365 -14 q 218 -14 138 58 q 58 131 58 266 q 58 373 93 460 q 128 547 190 610 q 251 672 336 707 q 420 741 514 741 q 589 741 653 726 q 718 710 770 681 l 727 504 l 705 504 q 659 554 613 578 q 567 601 505 601 q 396 601 325 514 q 255 426 255 291 q 255 204 294 165 q 333 126 408 126 q 476 126 535 153 q 594 180 646 222 l 666 222 l 624 48 q 602 40 572 27 q 543 15 516 7 q 481 -3 450 -9 q 420 -14 365 -14 z"},"W":{"x_min":0,"x_max":1128,"ha":1128,"o":"m 1201 727 l 847 0 l 646 0 l 615 482 l 379 0 l 170 0 l 137 727 l 333 727 l 334 227 l 578 727 l 765 727 l 787 227 l 1010 727 z"},"A":{"x_min":0,"x_max":776,"ha":776,"o":"m 708 0 l 520 0 l 503 148 l 235 148 l 150 0 l -45 0 l 391 727 l 607 727 z m 489 279 l 459 540 l 310 279 z"},"f":{"x_min":0,"x_max":422,"ha":422,"o":"m 330 548 l 466 548 l 439 433 l 310 433 l 209 0 l 33 0 l 133 433 l 58 433 l 84 548 l 159 548 l 163 562 q 185 662 245 713 q 304 765 421 765 q 464 765 496 762 q 527 759 550 755 l 521 631 l 508 631 q 497 635 476 639 q 456 643 438 643 q 389 643 367 624 q 345 605 331 552 z"},"Q":{"x_min":0,"x_max":850,"ha":850,"o":"m 833 457 q 833 389 816 320 q 798 252 761 192 q 726 134 672 88 q 618 41 550 16 q 548 9 547 -1 q 546 -10 546 -19 q 546 -52 567 -67 q 588 -82 638 -82 q 659 -82 687 -75 q 715 -68 728 -62 l 747 -62 l 717 -191 q 688 -198 658 -203 q 628 -208 576 -208 q 476 -208 425 -169 q 374 -130 374 -58 q 374 -45 375 -35 q 376 -25 378 -15 q 377 -15 376 -15 q 375 -15 375 -15 q 226 -15 142 62 q 58 139 58 273 q 58 368 90 454 q 122 539 182 604 q 241 667 327 705 q 414 742 516 742 q 665 742 749 665 q 833 588 833 457 z m 565 208 q 599 252 617 309 q 636 367 636 441 q 636 520 599 564 q 562 608 492 608 q 447 608 406 587 q 364 566 330 524 q 296 483 275 423 q 255 363 255 288 q 255 204 293 162 q 332 119 399 119 q 446 119 490 142 q 533 166 565 208 z"},"w":{"x_min":0,"x_max":979,"ha":979,"o":"m 1021 548 l 734 0 l 548 0 l 511 370 l 326 0 l 137 0 l 85 548 l 265 548 l 281 170 l 476 548 l 632 548 l 666 170 l 835 548 z"},"-":{"x_min":0,"x_max":480,"ha":480,"o":"m 421 253 l 49 253 l 81 394 l 454 394 z"},"E":{"x_min":0,"x_max":683,"ha":683,"o":"m 724 727 l 692 589 l 353 589 l 322 459 l 637 459 l 605 321 l 290 321 l 248 138 l 587 138 l 556 0 l 29 0 l 197 727 z"},"s":{"x_min":0,"x_max":593,"ha":593,"o":"m 231 -15 q 161 -15 95 -2 q 29 11 -6 29 l 27 173 l 43 173 q 54 164 71 153 q 87 142 117 129 q 143 118 177 110 q 211 102 251 102 q 310 102 340 116 q 369 129 369 155 q 369 174 348 185 q 327 195 261 210 q 149 236 108 272 q 67 309 67 364 q 67 457 150 510 q 233 563 375 563 q 436 563 498 551 q 559 539 588 524 l 556 386 l 541 386 q 506 413 457 429 q 408 446 356 446 q 300 446 270 433 q 240 419 240 392 q 240 370 266 359 q 292 347 347 335 q 451 312 496 278 q 542 244 542 183 q 542 91 458 38 q 374 -15 231 -15 z"},">":{"x_min":0,"x_max":867,"ha":867,"o":"m 778 268 l 126 -3 l 126 137 l 583 323 l 126 510 l 126 650 l 778 379 z"},"l":{"x_min":0,"x_max":342,"ha":342,"o":"m 372 760 l 196 0 l 20 0 l 195 760 z"},"8":{"x_min":0,"x_max":711,"ha":711,"o":"m 705 579 q 705 518 662 469 q 619 421 538 392 l 537 389 q 593 362 624 326 q 655 290 655 234 q 655 122 560 52 q 465 -17 319 -17 q 186 -17 109 32 q 31 82 31 166 q 31 240 76 292 q 121 344 213 375 l 214 377 q 166 406 143 437 q 119 468 119 514 q 119 561 139 601 q 159 642 199 674 q 238 706 296 725 q 355 744 431 744 q 559 744 632 699 q 705 654 705 579 z m 517 549 q 517 583 490 602 q 462 621 420 621 q 370 621 340 597 q 309 573 309 538 q 309 516 322 501 q 335 487 363 473 q 377 466 399 457 q 421 447 451 436 q 479 461 498 489 q 517 518 517 549 z m 465 207 q 465 232 452 250 q 438 268 394 291 q 379 298 351 310 q 322 322 302 331 q 261 300 242 268 q 222 236 222 201 q 222 157 255 132 q 288 108 341 108 q 390 108 427 136 q 465 164 465 207 z"},"\\":{"x_min":0,"x_max":689,"ha":689,"o":"m 550 -158 l 405 -158 l 180 760 l 327 760 z"},"e":{"x_min":0,"x_max":664,"ha":664,"o":"m 463 345 q 465 354 466 361 q 466 368 466 376 q 466 415 442 435 q 418 456 374 456 q 319 456 282 426 q 246 397 227 345 z m 329 -15 q 189 -15 113 47 q 37 109 37 219 q 37 293 62 356 q 86 418 133 466 q 178 512 246 539 q 313 565 394 565 q 516 565 578 516 q 641 466 641 370 q 641 336 634 305 q 627 273 617 242 l 209 242 q 209 239 209 236 q 209 233 209 230 q 209 173 250 141 q 290 109 372 109 q 430 109 481 128 q 533 148 571 172 l 590 172 l 558 31 q 506 8 450 -3 q 393 -15 329 -15 z"},"b":{"x_min":0,"x_max":699,"ha":699,"o":"m 667 373 q 667 298 643 228 q 619 158 577 105 q 534 52 477 21 q 419 -11 349 -11 q 303 -11 267 -1 q 230 8 202 27 l 189 0 l 20 0 l 195 760 l 372 760 l 310 491 q 357 524 400 544 q 442 563 495 563 q 580 563 624 513 q 667 462 667 373 z m 481 340 q 481 386 461 410 q 441 434 392 434 q 366 434 341 425 q 316 416 289 401 l 225 126 q 242 119 261 115 q 280 111 304 111 q 386 111 434 175 q 481 239 481 340 z"},"%":{"x_min":0,"x_max":1272,"ha":1272,"o":"m 560 567 q 560 431 490 349 q 421 267 304 267 q 205 267 154 312 q 104 357 104 445 q 104 581 174 661 q 244 741 359 741 q 458 741 509 696 q 560 652 560 567 z m 417 557 q 417 597 400 617 q 383 637 350 637 q 306 637 276 584 q 247 532 247 452 q 247 411 263 391 q 280 371 313 371 q 360 371 388 426 q 417 481 417 557 z m 1200 285 q 1200 149 1130 67 q 1061 -15 944 -15 q 845 -15 794 30 q 744 75 744 163 q 744 298 814 378 q 884 458 1000 458 q 1098 458 1149 414 q 1200 370 1200 285 z m 1057 274 q 1057 314 1040 335 q 1023 355 990 355 q 946 355 916 302 q 887 250 887 169 q 887 129 903 109 q 920 88 954 88 q 1000 88 1029 144 q 1057 199 1057 274 z m 973 727 l 464 0 l 332 0 l 841 727 z"},"m":{"x_min":0,"x_max":1058,"ha":1058,"o":"m 1008 426 q 1008 411 1006 394 q 1004 376 1000 357 l 917 0 l 739 0 l 803 274 q 809 302 814 328 q 819 354 819 370 q 819 398 804 412 q 788 425 748 425 q 729 425 705 416 q 681 407 646 389 l 557 0 l 379 0 l 442 274 q 448 298 453 326 q 458 354 458 368 q 458 398 444 411 q 429 425 388 425 q 367 425 342 415 q 317 405 286 389 l 196 0 l 20 0 l 146 548 l 323 548 l 309 488 q 363 523 406 543 q 449 563 500 563 q 554 563 591 539 q 628 515 643 468 q 708 516 760 540 q 812 563 860 563 q 932 563 970 528 q 1008 492 1008 426 z"},"#":{"x_min":0,"x_max":867,"ha":867,"o":"m 819 442 l 665 442 l 603 290 l 740 290 l 722 173 l 555 173 l 483 0 l 365 0 l 436 173 l 307 173 l 236 0 l 117 0 l 188 173 l 56 173 l 75 290 l 236 290 l 297 442 l 154 442 l 173 559 l 345 559 l 414 727 l 533 727 l 465 559 l 593 559 l 662 727 l 782 727 l 713 559 l 837 559 z m 547 443 l 417 443 l 353 289 l 484 289 z"},",":{"x_min":0,"x_max":361,"ha":361,"o":"m 285 192 l 22 -181 l -86 -181 l 95 192 z"},"n":{"x_min":0,"x_max":712,"ha":712,"o":"m 662 424 q 662 410 660 393 q 658 375 653 357 l 571 0 l 394 0 l 456 272 q 463 302 467 324 q 471 345 471 364 q 471 396 455 410 q 438 425 396 425 q 375 425 347 416 q 320 407 286 389 l 196 0 l 20 0 l 146 548 l 323 548 l 309 488 q 363 523 407 543 q 452 563 506 563 q 580 563 621 528 q 662 492 662 424 z"},"h":{"x_min":0,"x_max":712,"ha":712,"o":"m 662 424 q 662 413 660 394 q 658 375 654 357 l 571 0 l 394 0 l 457 272 q 463 303 467 325 q 471 346 471 363 q 471 396 455 410 q 438 425 396 425 q 375 425 347 416 q 320 407 286 389 l 196 0 l 20 0 l 195 760 l 372 760 l 309 488 q 363 523 408 543 q 453 563 506 563 q 581 563 622 527 q 662 491 662 424 z"},"z":{"x_min":0,"x_max":597,"ha":597,"o":"m 491 0 l -24 0 l 1 108 l 361 425 l 85 425 l 114 548 l 612 548 l 587 442 l 231 126 l 520 126 z"},"B":{"x_min":0,"x_max":762,"ha":762,"o":"m 732 562 q 732 496 696 453 q 659 410 584 388 l 583 384 q 643 367 673 334 q 704 302 704 244 q 704 129 610 64 q 516 0 344 0 l 29 0 l 197 727 l 462 727 q 593 727 663 684 q 732 641 732 562 z m 534 533 q 534 565 508 579 q 483 594 438 594 l 354 594 l 318 440 l 403 440 q 465 440 499 464 q 534 487 534 533 z m 513 239 q 513 279 482 297 q 452 314 387 314 l 289 314 l 247 133 l 342 133 q 424 133 468 160 q 513 187 513 239 z"},"K":{"x_min":0,"x_max":771,"ha":771,"o":"m 716 0 l 509 0 l 346 294 l 270 229 l 217 0 l 29 0 l 196 727 l 385 727 l 311 407 l 639 727 l 862 727 l 495 389 z"},"R":{"x_min":0,"x_max":782,"ha":782,"o":"m 759 544 q 759 457 706 397 q 653 337 562 307 l 729 0 l 520 0 l 383 267 l 278 267 l 216 0 l 29 0 l 197 727 l 480 727 q 614 727 687 682 q 759 637 759 544 z m 557 513 q 557 557 529 575 q 501 593 446 593 l 354 593 l 308 397 l 400 397 q 475 397 516 428 q 557 458 557 513 z"},"T":{"x_min":0,"x_max":682,"ha":682,"o":"m 734 586 l 508 586 l 373 0 l 184 0 l 319 586 l 93 586 l 125 727 l 767 727 z"},"P":{"x_min":0,"x_max":733,"ha":733,"o":"m 752 526 q 752 396 644 316 q 537 237 343 237 l 272 237 l 217 0 l 29 0 l 197 727 l 458 727 q 529 727 582 717 q 635 708 674 684 q 712 660 732 621 q 752 583 752 526 z m 552 508 q 552 550 521 571 q 490 591 430 591 l 354 591 l 304 374 l 371 374 q 457 374 504 408 q 552 443 552 508 z"},"|":{"x_min":0,"x_max":543,"ha":543,"o":"m 354 -191 l 212 -191 l 212 760 l 354 760 z"},"t":{"x_min":0,"x_max":456,"ha":456,"o":"m 230 -11 q 139 -11 100 19 q 61 49 61 108 q 61 124 63 139 q 65 153 69 173 l 129 433 l 57 433 l 83 548 l 156 548 l 192 705 l 368 705 l 332 548 l 497 548 l 470 433 l 305 433 l 260 235 q 255 214 250 194 q 246 173 246 158 q 246 129 262 117 q 279 106 313 106 q 327 106 349 111 q 371 116 384 123 l 399 123 l 372 5 q 342 -2 309 -7 q 276 -11 230 -11 z"},"M":{"x_min":0,"x_max":948,"ha":948,"o":"m 792 0 l 604 0 l 714 476 l 515 171 l 385 171 l 321 496 l 207 0 l 29 0 l 197 727 l 412 727 l 492 362 l 739 727 l 960 727 z"},"g":{"x_min":0,"x_max":699,"ha":699,"o":"m 680 548 l 570 63 q 552 -15 519 -67 q 485 -119 438 -149 q 389 -181 332 -194 q 275 -207 204 -207 q 145 -207 90 -199 q 36 -192 -1 -183 l 26 -48 l 47 -48 q 88 -64 129 -73 q 171 -83 203 -83 q 250 -83 284 -74 q 318 -65 337 -49 q 358 -32 371 -7 q 383 18 391 54 l 394 64 q 355 38 318 23 q 280 8 233 8 q 141 8 89 54 q 37 101 37 194 q 37 356 128 460 q 219 563 350 563 q 396 563 435 552 q 473 541 497 524 l 509 548 z m 474 421 q 460 428 437 433 q 414 439 396 439 q 317 439 270 380 q 222 321 222 228 q 222 186 242 163 q 263 139 316 139 q 342 139 368 149 q 395 159 418 173 z"},"j":{"x_min":0,"x_max":403,"ha":403,"o":"m 384 548 l 258 2 q 235 -94 171 -150 q 106 -207 5 -207 q -44 -207 -81 -203 q -117 -199 -137 -194 l -108 -68 l -94 -68 q -78 -74 -62 -77 q -45 -80 -25 -80 q 21 -79 47 -55 q 74 -31 87 27 l 180 429 l 76 429 l 104 548 z m 432 760 l 401 626 l 214 626 l 245 760 z"},"i":{"x_min":0,"x_max":342,"ha":342,"o":"m 323 548 l 196 0 l 20 0 l 146 548 z m 377 760 l 346 626 l 160 626 l 190 760 z"},"y":{"x_min":0,"x_max":651,"ha":651,"o":"m 222 -201 l 29 -201 l 168 11 l 78 548 l 258 548 l 305 189 l 514 548 l 700 548 z"},"@":{"x_min":0,"x_max":964,"ha":964,"o":"m 800 68 l 543 68 l 543 106 q 513 86 488 76 q 463 65 421 65 q 353 65 311 114 q 269 162 269 247 q 269 374 341 465 q 413 557 513 557 q 545 557 572 546 q 598 536 615 520 l 621 550 l 734 550 l 657 151 l 745 151 q 778 206 793 267 q 809 328 809 391 q 809 513 741 583 q 674 653 547 653 q 477 653 411 623 q 345 593 292 538 q 241 485 211 411 q 180 338 180 254 q 180 185 201 133 q 222 81 257 47 q 294 12 343 -6 q 391 -23 448 -23 q 490 -23 547 -15 q 603 -7 641 4 l 627 -91 q 580 -101 534 -106 q 489 -112 436 -112 q 275 -112 176 -16 q 77 80 77 244 q 77 342 114 431 q 150 521 215 590 q 279 659 368 700 q 458 741 559 741 q 719 741 814 644 q 910 547 910 393 q 910 306 878 217 q 847 128 800 68 z m 550 197 l 598 441 q 583 451 563 457 q 544 463 520 463 q 466 463 428 403 q 391 343 391 256 q 391 204 409 181 q 426 158 464 158 q 487 158 508 168 q 529 179 550 197 z"},".":{"x_min":0,"x_max":361,"ha":361,"o":"m 209 0 l 26 0 l 70 192 l 253 192 z"},"p":{"x_min":0,"x_max":699,"ha":699,"o":"m 667 373 q 667 297 642 226 q 618 155 575 104 q 531 50 475 20 q 419 -11 350 -11 q 306 -11 269 -1 q 232 9 202 27 l 149 -201 l -27 -201 l 146 548 l 323 548 l 310 491 q 359 525 402 544 q 444 563 495 563 q 578 563 623 513 q 667 462 667 373 z m 438 181 q 459 211 470 253 q 481 294 481 342 q 481 387 462 410 q 442 434 392 434 q 366 434 341 425 q 316 416 289 401 l 225 125 q 241 119 261 115 q 282 111 304 111 q 349 111 383 130 q 417 149 438 181 z"},"X":{"x_min":0,"x_max":764,"ha":764,"o":"m 298 375 l 122 727 l 326 727 l 433 498 l 645 727 l 853 727 l 510 365 l 688 0 l 484 0 l 375 242 l 155 0 l -52 0 z"},"*":{"x_min":0,"x_max":711,"ha":711,"o":"m 661 408 l 606 328 l 450 434 l 456 261 l 352 261 l 355 430 l 202 327 l 149 408 l 322 510 l 149 613 l 202 695 l 355 591 l 352 760 l 455 760 l 451 590 l 606 693 l 660 612 l 485 511 z"},"Y":{"x_min":0,"x_max":737,"ha":737,"o":"m 837 727 l 467 281 l 402 0 l 213 0 l 276 272 l 109 727 l 310 727 l 403 442 l 621 727 z"},"c":{"x_min":0,"x_max":588,"ha":588,"o":"m 303 -15 q 247 -15 198 -1 q 148 13 112 42 q 76 71 56 115 q 36 158 36 215 q 36 289 64 352 q 92 416 143 463 q 193 509 265 536 q 336 563 420 563 q 470 563 520 552 q 569 541 612 520 l 575 370 l 550 370 q 521 404 485 421 q 448 438 403 438 q 320 438 270 379 q 219 320 219 232 q 219 171 250 141 q 281 111 347 111 q 397 111 439 132 q 481 152 511 178 l 536 178 l 499 28 q 446 5 406 -5 q 366 -15 303 -15 z"},"!":{"x_min":0,"x_max":402,"ha":402,"o":"m 408 727 l 266 209 l 106 209 l 204 727 z m 236 0 l 39 0 l 69 129 l 266 129 z"},"/":{"x_min":0,"x_max":689,"ha":689,"o":"m 685 760 l 136 -158 l -19 -158 l 529 760 z"},"[":{"x_min":0,"x_max":543,"ha":543,"o":"m 339 -191 l 13 -191 l 233 760 l 559 760 l 532 643 l 358 643 l 193 -74 l 367 -74 z"},"6":{"x_min":0,"x_max":711,"ha":711,"o":"m 334 -16 q 274 -16 224 -1 q 175 13 139 43 q 104 74 84 123 q 64 171 64 239 q 64 349 96 440 q 128 532 188 599 q 246 665 333 703 q 420 741 524 741 q 563 741 612 734 q 661 728 678 723 l 653 581 l 635 582 q 624 588 590 598 q 556 608 513 608 q 429 608 370 567 q 312 525 281 439 q 318 458 362 471 q 405 483 451 483 q 548 483 604 433 q 661 382 661 292 q 661 159 568 72 q 475 -16 334 -16 z m 468 263 q 468 314 438 337 q 407 360 350 360 q 325 360 302 355 q 278 350 263 346 q 258 325 254 295 q 250 266 250 242 q 250 173 272 141 q 294 108 348 108 q 397 108 432 152 q 468 195 468 263 z"},"r":{"x_min":0,"x_max":497,"ha":497,"o":"m 506 381 l 490 381 q 479 385 457 387 q 436 389 415 389 q 380 389 348 384 q 315 378 281 367 l 196 0 l 20 0 l 146 548 l 323 548 l 305 468 q 354 504 404 527 q 454 550 504 550 q 513 550 525 550 q 536 549 545 548 z"},"2":{"x_min":0,"x_max":711,"ha":711,"o":"m 598 0 l 27 0 l 55 120 q 136 172 207 222 q 278 272 328 312 q 404 374 439 423 q 475 472 475 517 q 475 560 447 580 q 418 600 369 600 q 318 600 265 583 q 212 565 165 534 l 149 534 l 185 696 q 221 710 294 726 q 367 741 432 741 q 549 741 612 698 q 674 654 674 568 q 674 479 627 411 q 581 343 479 263 q 428 223 383 192 q 337 161 303 139 l 630 139 z"},"{":{"x_min":0,"x_max":711,"ha":711,"o":"m 514 -191 l 384 -191 q 304 -191 257 -157 q 210 -122 210 -55 q 210 -22 224 35 q 238 92 238 125 q 238 175 206 200 q 174 224 98 224 l 63 224 l 89 344 l 123 344 q 213 344 257 380 q 302 416 319 499 l 334 571 q 354 667 418 714 q 481 760 582 760 l 716 760 l 692 650 l 637 650 q 603 650 580 646 q 557 641 537 627 q 518 614 506 592 q 494 569 485 530 l 473 472 q 457 396 412 353 q 368 310 286 285 l 283 273 q 332 253 361 220 q 391 186 391 133 q 391 108 380 60 q 370 11 370 -7 q 370 -47 392 -65 q 414 -82 476 -82 l 537 -82 z"},"9":{"x_min":0,"x_max":711,"ha":711,"o":"m 677 487 q 677 380 645 287 q 613 193 554 127 q 493 60 410 23 q 326 -14 218 -14 q 176 -14 128 -8 q 80 -1 63 3 l 88 146 l 107 145 q 119 138 150 128 q 182 118 229 118 q 315 118 374 162 q 432 205 461 288 q 417 266 381 255 q 345 243 291 243 q 192 243 136 294 q 81 346 81 435 q 81 570 177 656 q 272 742 408 742 q 467 742 516 728 q 566 714 603 683 q 639 651 658 603 q 677 554 677 487 z m 492 485 q 492 553 470 586 q 447 619 394 619 q 345 619 309 575 q 274 531 274 463 q 274 413 304 389 q 334 366 392 366 q 414 366 437 371 q 460 375 479 381 q 484 405 488 430 q 492 456 492 485 z"}," ":{"x_min":0,"x_max":342,"ha":342,"o":""},"I":{"x_min":0,"x_max":546,"ha":546,"o":"m 422 0 l -3 0 l 26 129 l 145 129 l 253 598 l 135 598 l 165 727 l 590 727 l 561 598 l 442 598 l 333 129 l 452 129 z"},"H":{"x_min":0,"x_max":837,"ha":837,"o":"m 850 727 l 682 0 l 493 0 l 567 321 l 292 321 l 217 0 l 29 0 l 197 727 l 385 727 l 323 459 l 599 459 l 661 727 z"},"4":{"x_min":0,"x_max":711,"ha":711,"o":"m 647 167 l 548 167 l 509 -2 l 330 -2 l 369 167 l 17 167 l 48 305 l 486 727 l 677 727 l 579 300 l 678 300 z m 399 300 l 459 558 l 193 300 z"},"~":{"x_min":0,"x_max":867,"ha":867,"o":"m 801 492 q 801 332 748 246 q 695 160 590 160 q 555 160 529 168 q 503 176 482 189 q 461 204 445 220 q 429 237 411 258 q 399 272 384 292 q 368 312 356 324 q 342 339 329 348 q 316 356 300 356 q 271 356 256 341 q 241 326 232 302 q 224 276 221 236 q 218 197 217 159 l 85 159 q 85 324 140 407 q 195 491 297 491 q 330 491 357 482 q 384 474 406 460 q 426 446 443 429 q 460 412 477 393 q 488 378 502 360 q 516 342 531 326 q 547 309 560 302 q 573 294 586 294 q 614 294 630 308 q 646 322 654 348 q 663 374 666 411 q 668 447 669 492 z"},"D":{"x_min":0,"x_max":830,"ha":830,"o":"m 812 443 q 812 320 747 215 q 682 111 581 55 q 519 22 452 11 q 385 0 292 0 l 29 0 l 197 727 l 432 727 q 536 727 600 711 q 663 695 702 667 q 756 630 784 575 q 812 520 812 443 z m 616 426 q 616 476 597 512 q 579 548 541 570 q 523 580 505 585 q 486 590 463 592 q 440 594 412 594 q 383 594 361 594 l 355 594 l 248 133 l 265 133 q 293 133 325 133 q 357 133 377 136 q 403 138 424 144 q 445 149 470 162 q 540 198 578 270 q 616 341 616 426 z"},"^":{"x_min":0,"x_max":867,"ha":867,"o":"m 795 313 l 639 313 l 449 590 l 275 312 l 120 312 l 388 727 l 510 727 z"},"0":{"x_min":0,"x_max":711,"ha":711,"o":"m 690 503 q 690 403 667 307 q 643 211 598 141 q 546 63 477 24 q 408 -15 319 -15 q 192 -15 124 43 q 56 101 56 223 q 56 328 79 420 q 102 513 148 585 q 195 658 266 700 q 337 742 428 742 q 559 742 624 682 q 690 622 690 503 z m 501 496 q 501 553 481 581 q 460 608 419 608 q 380 608 346 573 q 312 539 288 474 q 267 418 256 351 q 245 285 245 230 q 245 173 265 146 q 286 119 330 119 q 372 119 404 156 q 436 194 458 252 q 479 307 490 372 q 501 438 501 496 z"},"F":{"x_min":0,"x_max":650,"ha":650,"o":"m 718 727 l 686 586 l 352 586 l 320 451 l 630 451 l 598 311 l 288 311 l 216 0 l 29 0 l 197 727 z"},"`":{"x_min":0,"x_max":711,"ha":711,"o":"m 520 626 l 410 626 l 270 809 l 270 818 l 437 818 z"},"k":{"x_min":0,"x_max":671,"ha":671,"o":"m 608 0 l 423 0 l 315 242 l 237 173 l 197 0 l 20 0 l 195 760 l 372 760 l 268 306 l 513 548 l 715 548 l 461 310 z"},"u":{"x_min":0,"x_max":712,"ha":712,"o":"m 693 548 l 566 0 l 390 0 l 404 61 q 377 43 352 29 q 327 14 305 5 q 276 -7 253 -11 q 229 -15 207 -15 q 134 -15 93 20 q 51 54 51 122 q 51 141 53 156 q 55 172 59 191 l 142 548 l 319 548 l 256 276 q 249 245 245 223 q 242 200 242 185 q 242 152 257 138 q 273 124 316 124 q 338 124 366 133 q 394 142 427 160 l 517 548 z"},"]":{"x_min":0,"x_max":543,"ha":543,"o":"m 315 -191 l -11 -191 l 16 -74 l 189 -74 l 354 643 l 181 643 l 208 760 l 535 760 z"},"U":{"x_min":0,"x_max":812,"ha":812,"o":"m 835 727 l 729 273 q 694 122 609 54 q 524 -14 363 -14 q 219 -14 146 37 q 72 89 72 193 q 72 215 75 237 q 79 259 83 277 l 187 727 l 376 727 l 272 276 q 269 263 266 246 q 264 230 264 219 q 264 173 292 150 q 319 126 383 126 q 445 126 484 160 q 522 194 539 267 l 646 727 z"},"o":{"x_min":0,"x_max":686,"ha":686,"o":"m 652 348 q 652 271 626 203 q 600 136 553 87 q 504 37 440 10 q 375 -17 290 -17 q 167 -17 102 42 q 36 100 36 204 q 36 277 61 343 q 85 409 133 459 q 179 508 247 537 q 314 565 398 565 q 521 565 587 508 q 652 450 652 348 z m 423 168 q 446 202 457 243 q 469 283 469 341 q 469 392 447 419 q 425 446 377 446 q 340 446 312 428 q 284 410 262 376 q 242 346 231 300 q 219 255 219 207 q 219 151 244 127 q 269 103 312 103 q 344 103 374 120 q 403 137 423 168 z"},"N":{"x_min":0,"x_max":847,"ha":847,"o":"m 691 0 l 531 0 l 318 503 l 202 0 l 29 0 l 197 727 l 407 727 l 589 306 l 686 727 l 859 727 z"},"+":{"x_min":0,"x_max":867,"ha":867,"o":"m 771 258 l 511 258 l 511 0 l 377 0 l 377 258 l 117 258 l 117 389 l 377 389 l 377 646 l 511 646 l 511 389 l 771 389 z"},"G":{"x_min":0,"x_max":811,"ha":811,"o":"m 388 -15 q 233 -15 145 58 q 58 131 58 266 q 58 476 193 609 q 328 741 536 741 q 615 741 682 728 q 749 714 821 677 l 780 506 l 759 506 q 700 562 648 584 q 596 605 533 605 q 469 605 417 579 q 365 553 329 509 q 294 467 274 409 q 255 352 255 289 q 255 201 303 160 q 351 119 458 119 q 469 119 482 119 q 495 120 505 121 l 539 263 l 394 263 l 425 400 l 761 400 l 678 42 q 613 19 539 2 q 466 -15 388 -15 z"},"q":{"x_min":0,"x_max":699,"ha":699,"o":"m 474 420 q 460 427 437 433 q 414 438 396 438 q 350 438 317 418 q 285 398 264 368 q 242 338 230 297 q 218 255 218 210 q 218 165 238 140 q 258 115 311 115 q 335 115 362 126 q 388 137 412 151 z m 681 548 l 507 -201 l 331 -201 l 390 54 q 369 41 344 26 q 320 11 303 3 q 278 -7 256 -11 q 234 -15 208 -15 q 129 -15 81 37 q 34 88 34 184 q 34 266 61 335 q 87 405 132 457 q 176 507 234 535 q 292 563 352 563 q 396 563 431 553 q 466 542 497 524 l 509 548 z"},"d":{"x_min":0,"x_max":699,"ha":699,"o":"m 729 760 l 554 0 l 377 0 l 390 57 q 365 41 345 28 q 326 15 303 4 q 281 -5 260 -10 q 238 -15 208 -15 q 129 -15 81 37 q 34 88 34 184 q 34 262 59 330 q 84 399 128 452 q 171 503 229 533 q 288 563 352 563 q 397 563 430 554 q 463 545 499 526 l 553 760 z m 474 420 q 460 427 437 433 q 414 438 396 438 q 354 438 321 420 q 287 401 264 369 q 243 340 230 296 q 218 251 218 209 q 218 160 241 138 q 264 115 311 115 q 335 115 362 126 q 388 137 412 151 z"},"1":{"x_min":0,"x_max":711,"ha":711,"o":"m 552 0 l 67 0 l 96 127 l 249 127 l 337 511 l 185 511 l 212 630 q 246 630 280 634 q 314 639 337 648 q 363 660 381 679 q 400 698 409 729 l 571 729 l 432 127 l 582 127 z"},"5":{"x_min":0,"x_max":711,"ha":711,"o":"m 538 55 q 488 20 422 2 q 356 -15 281 -15 q 190 -15 126 -2 q 62 11 23 29 l 61 189 l 81 189 q 128 159 175 143 q 222 128 275 128 q 354 128 402 157 q 450 187 450 248 q 450 294 410 317 q 371 340 289 340 q 252 340 212 333 q 171 327 139 317 l 117 317 l 212 727 l 729 727 l 697 588 l 356 588 l 329 469 q 335 470 346 470 q 357 470 372 470 q 428 470 477 459 q 525 449 563 426 q 602 403 624 366 q 646 330 646 275 q 646 200 617 145 q 587 90 538 55 z"}}}
